<svg width="160" height="66" viewBox="0 0 160 66" fill="none" xmlns="http://www.w3.org/2000/svg">
<path d="M23.2685 8.41779C37.9114 8.41779 54.5303 9.85302 68.3083 4.91247C84.4354 -0.870405 103.949 3.74402 120.589 3.74402C128.594 3.74402 136.271 4.91247 144.195 4.91247C146.625 4.91247 152.904 4.3378 154.623 6.34056C156.991 9.10044 154.639 17.7365 155.202 21.2707C155.67 24.2062 160.501 54.436 156.288 55.1555C116.606 61.9314 75.6478 66.7721 35.5 62.9836C35.5 62.9836 13.5 62.9836 7.5 57.5738C4.46874 51.4597 2.41402 48.4057 2.41402 41.7184C2.41402 37.3797 1.31209 31.5828 2.70366 27.3725C3.79216 24.0792 5.65753 14.5588 8.93104 13.0916" stroke="#333333" stroke-width="3" stroke-linecap="round" stroke-linejoin="round"/>
</svg>
