<svg width="61" height="42" viewBox="0 0 61 42" fill="none" xmlns="http://www.w3.org/2000/svg">
    <path d="M17.7849 4.82777C15.8305 5.98444 14.0906 7.23661 12.306 8.62942C10.2744 10.2151 8.05802 11.4671 6.15632 13.2262C4.93118 14.3594 3.94928 15.7016 2.80192 16.9036C0.877761 18.9194 6.68296 16.4003 7.22475 16.2079C11.246 14.7799 15.4991 13.6015 19.3379 11.7229C23.3175 9.77542 27.2272 7.66978 31.2149 5.72227C33.4424 4.63443 35.4508 3.42424 37.5386 2.1194C38.6442 1.42838 35.6561 3.9248 34.6811 4.7905C31.8874 7.27111 28.9003 9.44522 25.8603 11.6111C23.3795 13.3786 20.8719 15.0988 18.3315 16.7794C16.199 18.1901 13.9898 19.5283 12.2812 21.4631C10.2852 23.7233 8.25628 25.8821 6.18116 28.0725C4.93011 29.3931 3.78861 30.8197 2.40436 32.0108C2.1404 32.2379 1.61963 32.916 2.45406 32.3711C5.00647 30.7042 7.4363 29.121 10.1816 27.7619C15.918 24.9219 21.3045 21.3447 26.8169 18.0963C31.1572 15.5386 35.6404 13.0793 40.1724 10.8781C43.6784 9.17516 47.4002 8.06542 50.335 5.42411C50.6903 5.10431 51.4229 3.89602 51.2916 4.35567C50.7686 6.18624 48.8508 8.1425 47.7508 9.59847C43.0038 15.8819 37.7201 21.9064 31.2894 26.532C26.8006 29.7608 21.4028 31.3866 16.6792 34.2346C15.2118 35.1194 14.0565 36.1631 13.039 37.5269C12.5269 38.2134 11.8216 38.8003 11.3743 39.5271C10.8453 40.3867 13.0745 38.4364 13.9584 37.9493C18.5173 35.4373 23.2605 33.2864 28.022 31.2033C30.3914 30.1666 32.5155 28.7253 34.8053 27.5383C37.9888 25.8881 41.2714 24.5301 44.6822 23.426C47.6357 22.47 50.4406 21.6458 53.1179 20.0841C54.2758 19.4086 55.4422 18.7143 56.5965 18.0217C56.7489 17.9303 57.7157 17.1312 57.9383 17.2266C58.2649 17.3666 55.5203 20.4645 55.4535 20.5313C51.4634 24.5214 46.8626 27.8044 42.2471 31.0045C39.2329 33.0943 35.7488 34.5736 32.8673 36.7567C32.5056 37.0306 32.4013 37.3515 32.0846 37.589C30.9763 38.4202 33.6999 37.7073 33.7369 37.7009C38.5502 36.8632 43.5318 35.9014 48.0738 34.0483C50.617 33.0107 53.2204 31.4023 55.4038 29.7248C56.3756 28.9783 58.506 28.0323 58.9322 26.9668" stroke="#FF8C2B" stroke-width="3" stroke-linecap="round" stroke-linejoin="round">


    </path>





</svg>
