<svg width="45" height="29" viewBox="0 0 45 29" fill="none" xmlns="http://www.w3.org/2000/svg">
<path d="M41.3351 25.0604C39.5701 23.8962 37.5433 23.1831 35.8579 21.925C34.4109 20.8448 32.9351 20.2278 31.2517 19.5638C28.9901 18.6717 26.8821 17.438 24.6132 16.5252C23.29 15.9929 21.977 15.5679 20.6843 14.9575C19.9486 14.6101 21.0523 14.5417 21.4004 14.435C22.7789 14.0123 23.9886 12.9058 25.2229 12.1705C28.6449 10.1319 32.0729 8.11447 35.4999 6.08368C36.999 5.19534 38.5181 4.3375 40.0771 3.55798C40.6014 3.29584 41.5162 2.76907 42.0319 3.11283" stroke="#333333" stroke-width="5" stroke-linecap="round" stroke-linejoin="round"/>
<path d="M23.8986 25.5116C22.1336 24.3474 20.1068 23.6343 18.4214 22.3762C16.9743 21.296 15.4985 20.679 13.8151 20.015C11.5535 19.123 9.44562 17.8892 7.17669 16.9764C5.85344 16.4441 4.54043 16.0192 3.24781 15.4088C2.51203 15.0613 3.61574 14.993 3.96391 14.8862C5.34235 14.4635 6.55211 13.3571 7.78634 12.6218C11.2084 10.5831 14.6364 8.5657 18.0634 6.53492C19.5624 5.64657 21.0815 4.78874 22.6406 4.00921C23.1649 3.74707 24.0797 3.2203 24.5954 3.56406" stroke="#333333" stroke-width="5" stroke-linecap="round" stroke-linejoin="round"/>
</svg>
