<svg width="30" height="1057" viewBox="0 0 30 1057" fill="none" xmlns="http://www.w3.org/2000/svg">
<path d="M13.0026 1.5C11.9843 84.9967 5.29898 183.38 13.611 266.5C19.1209 321.6 6.38621 366.72 13.0026 424.5C10.3654 442.521 17.4135 463.705 17.4135 481.884C17.4135 506.948 16.0385 529.317 13.611 554.132C11.5836 574.856 11.9568 591.714 13.0026 612.5C14.7291 646.815 13.2248 670 13.2248 704C16.8002 721.877 13.0026 749.792 13.0026 768C13.0026 785.413 14.5642 838.098 13.0026 855.5C8.22206 908.769 6.04384 894.877 13.0026 949C20.0026 971.5 13.0026 977.5 13.0026 1002.5C13.0026 1014 12.111 1034 13.611 1055" stroke="#353535" stroke-width="3" stroke-linecap="round" stroke-linejoin="round"/>
</svg>
