<svg width="83" height="82" viewBox="0 0 83 82" fill="none" xmlns="http://www.w3.org/2000/svg">
<path d="M7.02225 42.1363C7.02225 37.2611 5.62843 33.6566 5.52016 28.7844C8.7249 28.7844 11.6296 29.1156 14.7663 28.2503C16.4673 27.7811 17.1781 25.0257 18.872 24.5C25.5 19 25.073 18.9527 29.9207 13.9972C31.5782 12.3029 33.4084 10.584 35.3282 9.19054L35.3557 9.17064C36.5732 8.28681 41.3237 4.83831 42.605 6.11961C43.0858 6.60036 42.1711 9.97933 42.1711 10.7594C42.1711 17.1626 40.7743 24.8978 42.605 31C45.8834 41.9281 43.9736 51.7517 43.9736 62.5981C43.9736 64.9844 44.2174 67.5065 43.9068 69.8748C43.685 71.566 43.8379 75.6136 42.605 76.7344C41.7659 77.4971 37.2499 73.0818 36.5967 72.7121C35.0445 71.8335 33.7027 70.8119 32.1071 69.9416C30.7978 69.2275 29.2881 68.2562 28.1516 67.2712C25.1098 64.635 22.4033 61.1444 18.872 59.1266C17.6815 58.4462 17.3427 57.9249 15.9012 57.9249C14.6828 57.9249 13.534 57.6245 12.2962 57.6245C11.2793 57.6245 8.79111 58.0726 7.99026 57.5577C7.66999 57.3518 7.74603 54.1729 7.68984 53.7858C7.11894 49.8529 7.02225 46.1083 7.02225 42.1363Z" stroke="#333333" stroke-width="10" stroke-linecap="round" stroke-linejoin="round"/>
<path d="M54.7969 16.9694C56.6111 19.2875 58.3371 21.6386 59.904 24.1127C61.1521 26.0833 62.9492 27.6431 64.21 29.6203C66.3722 33.011 68.0153 36.6134 68.0153 40.7024C68.0153 44.7309 66.9164 49.5647 64.9444 53.0863C63.8567 55.0284 62.8832 57.029 61.7733 58.9611C61.3197 59.7506 60.1952 62.4062 60.5049 59.9291" stroke="#333333" stroke-width="5" stroke-linecap="round" stroke-linejoin="round"/>
<path d="M58.0042 4C60.2706 5.93067 66.7441 11.5859 69 13.5C76.7969 23.5 73.4841 21.3189 76.7969 27.0515C79.096 38.0515 79.5871 31.2897 79.5 40C79.4592 44.0797 79.5 49 76.7969 56.5C72.5 63.5 68.7143 65.8395 66.1154 68.8234C64.0579 71.1857 61.6874 72.9415 59.2058 74.6648" stroke="#333333" stroke-width="5" stroke-linecap="round" stroke-linejoin="round"/>
</svg>
