<svg width="163" height="65" viewBox="0 0 163 65" fill="none" xmlns="http://www.w3.org/2000/svg">
<path d="M27.6313 11.2994C24.1858 13.2987 21.8984 14.4075 18.3879 16.2952C15.5806 17.8048 11.5763 20.1685 9.08407 22.2016C6.84384 24.0292 4.59061 25.9741 2.99966 28.4217C2.86164 28.6341 1.79611 30.2536 2.11753 30.1634C6.96044 28.8039 12.0938 25.6575 16.6613 23.5813C23.3879 19.2952 25.1916 18.2532 29.3504 14.5565C30.7952 13.2722 32.3491 12.0648 33.9193 10.9375C34.705 10.3735 36.7666 8.54669 36.4074 9.44469C35.3052 12.2002 32.4785 15.0628 30.6849 17.3386C26.5313 22.6087 21.933 27.4438 16.6613 31.611C12.1632 35.1666 7.76852 38.7024 4.0175 43.0786C3.38688 43.8143 3.06189 44.2034 2.50205 44.9786C2.33676 45.2074 1.88561 45.4354 2.02706 45.6797C2.15616 45.9027 2.52732 45.5365 2.75085 45.4083C3.66188 44.886 4.53931 44.3068 5.41985 43.7345C14.7935 37.6431 23.6079 30.8394 32.7432 24.4182C41.5794 18.2072 50.7711 13.1693 61.0164 9.67088C61.4515 9.52231 65.1127 8.26333 64.658 8.65304C58.9556 13.5408 53.5462 18.7456 47.7845 23.5813C40.6956 29.531 34.4511 36.4513 27.8123 42.8976C23.2051 47.3713 18.2358 51.4242 14.0602 56.3105C13.3654 57.1235 9.36426 60.7347 12.5673 58.7985C29.2242 48.7298 45.0058 35.6667 61.0164 24.4182C66.6722 18.8323 72.2172 13.9412 77.8673 8.29114C79.3255 6.83296 80.7569 5.18744 82.5042 4.06146C84.2401 2.94272 80.5894 8.14407 80.5137 8.26852C75.2751 16.8777 68.7585 24.1978 62.1474 31.7467C55.9094 38.8694 50.5053 46.7911 43.962 53.6189C42.9584 54.6661 41.4694 56.0036 40.8406 57.351C40.7008 57.6506 41.4539 57.1001 41.7454 56.9438C46.5257 54.3805 56.5152 45.9273 61.0164 42.8976C73.4033 34.5603 80.6123 29.726 91.3879 19.2952C94.636 16.1511 98.0331 12.393 101.685 9.67088C107.388 3.80479 111.682 2.11626 106.388 8.65304C104.104 12.7429 99.3879 17.3386 94.0396 23.898C82.5042 34.7952 70.3507 42.7063 59.3879 53.6189C57.5 55.4982 53.0803 59.4931 50.8879 61.2952C49.4525 62.4752 78.228 46.1839 82.5042 41.7952C107.888 24.2825 100.064 30.3357 120.388 14.5565C126.251 10.8321 131.646 6.41975 137.513 2.70434C137.86 2.48412 138.66 1.70932 138.598 2.11626C138.304 4.05749 132.945 10.2285 132.491 10.847C125.463 20.4382 112.888 26.4087 101.685 35.7275C100.781 37.0447 76.8233 56.0558 75.8879 57.351C71.3305 61.2414 103.127 41.1415 103.888 40.2952C114.888 33.668 124.786 26.532 132.446 20.2564C138.278 15.4781 123.178 28.423 117.888 33.7952C110.098 41.7052 101.671 52.8809 93.6099 60.5176C85.7487 67.965 103.008 55.8893 110.888 48.4618C114.891 44.6884 119.712 40.2952 132.491 26.7952C133.613 26.3399 152.086 4.95567 151.4 8.26852C150.927 10.5585 136.026 30.8128 134.934 32.5836C131.652 37.9048 127.746 42.7522 123.851 47.6249C123.019 48.6663 110.766 61.486 111.682 60.5176C114.092 57.9697 126.127 45.5917 128.556 43.056C131.133 40.3657 133.302 38.2488 136.02 35.7275C137.782 34.0926 152.256 23.8005 151.4 26.0468C148.974 32.4157 120.175 53.6125 118.888 60.5176C134.246 49.4447 125.48 56.8307 134.934 48.4618C139.388 44.5195 139.388 44.2974 141.888 41.7952C145.888 37.7917 180.106 11.322 146.388 44.9786C145.273 46.5841 136.584 54.3924 136.02 56.3105C135.858 56.8595 143.398 50.0912 143.888 49.7952C147.452 47.6413 147.926 44.9429 151.4 42.6488C153.456 41.2915 154.467 40.5906 156.286 39.2108C156.331 39.1771 158.129 37.492 157.055 38.8941C154.064 42.7995 150.788 46.4326 148.098 50.5654C146.692 52.7249 142.67 56.3105 150.154 47.6249" stroke="white" stroke-width="3" stroke-linecap="round" stroke-linejoin="round"/>
<path d="M34.2564 14.1799C35.9292 14.1799 37.7333 14.3621 39.3847 14.0619C40.7563 13.8125 42.3119 13.5937 43.7032 13.5726C45.5894 13.5441 47.4436 13.269 49.3376 13.269C50.3788 13.269 51.4705 13.3592 52.5006 13.1931C52.7501 13.1528 53.0315 13.036 52.6102 13.2184C51.5458 13.6791 50.4773 14.1376 49.4219 14.6185C47.5554 15.4691 45.6943 16.2657 43.7876 17.0309C41.8029 17.8272 39.7202 18.3956 37.858 19.4769C36.5399 20.2422 35.244 21.239 34.1636 22.3194C33.5981 22.8849 33.0929 23.6095 32.4851 24.116C32.0529 24.4762 31.5536 24.7465 31.2115 25.1956C30.5753 26.0305 30.1384 26.7181 29.5836 27.6248C28.044 30.1407 25.9825 32.2773 23.848 34.305C22.8033 35.2976 21.7377 36.2138 20.7441 37.2572C19.7423 38.3091 18.5037 39.298 17.2015 39.9057C16.8975 40.0475 15.2903 39.9459 15.6833 39.3743C16.2748 38.5138 17.5856 37.8301 18.4667 37.2909C19.1641 36.8642 19.8916 36.679 20.5838 36.1944C21.3119 35.6847 21.9062 35.0323 22.5322 34.4063C22.9483 33.9901 24.2461 32.1744 24.8939 32.3904C25.8679 32.715 24.2876 36.267 23.7805 36.8017C23.1474 37.4694 22.4014 38.0749 21.7225 38.6995C21.0282 39.3382 20.3016 39.8432 19.715 40.5973C19.2495 41.1958 18.7851 41.7972 18.2474 42.3348C17.0542 43.5281 15.7096 44.3711 14.3759 45.3713C14.0488 45.6166 13.6594 45.9171 13.4565 46.2823C13.2573 46.6408 12.5904 47.1998 12.5456 47.5812C12.2927 49.7307 11.1467 46.9908 10.3441 46.9908C10.3215 46.9908 11.5484 48.8786 11.6684 49.0826C12.0367 49.7087 12.101 50.7161 12.9083 50.5249C14.2203 50.2142 15.1521 49.7592 16.2737 49.0151C18.3112 47.6633 20.42 46.9763 22.7515 46.2654C25.9759 45.2822 29.3244 44.4565 31.3464 41.4829C32.2991 40.082 32.9105 38.363 33.531 36.8017C34.8797 33.4082 36.6624 30.7911 39.9076 29.0081C41.4624 28.1538 42.6424 27.353 43.8803 26.115C44.6197 25.3756 45.3528 24.6294 46.0987 23.8967C46.2511 23.7469 47.7314 22.3151 47.8362 22.6146C48.4748 24.4393 47.122 27.8573 45.9131 29.2274C44.1875 31.183 41.8645 32.8387 39.7052 34.2629C38.6567 34.9544 37.7727 35.8778 36.753 36.6161C35.7444 37.3465 34.7925 38.225 33.919 39.1128C32.3418 40.7159 31.2993 42.7953 29.7017 44.3929C27.9526 46.142 26.0288 47.6604 23.9577 49.0067C22.8355 49.7361 22.0877 50.9393 20.9887 51.672C20.5032 51.9957 20.1846 52.5605 21.014 52.4058C22.3836 52.1505 23.8421 51.9841 25.2397 51.9841C28.7617 51.9841 31.9676 50.5968 35.5385 51.1069C37.3075 51.3596 39.1137 52.177 40.9366 51.9166C42.4257 51.7039 42.9045 50.7358 43.8803 49.732C45.1615 48.4143 46.5809 47.1094 48.1061 46.0798C49.1829 45.353 50.3906 44.8554 51.4715 44.1314C52.9638 43.132 54.3102 41.8911 55.6636 40.7154C58.1468 38.5582 60.6703 36.4067 62.4282 33.5881C63.8652 31.2839 64.75 28.6002 65.5996 26.0391C66.0847 24.5767 66.5983 23.1226 67.1347 21.6784C67.5049 20.6815 67.7917 19.4433 68.4505 18.5828C69.688 16.9666 71.4477 15.5928 73.0558 14.3655C73.217 14.2425 73.7137 13.8855 73.7137 13.657C73.7137 13.4234 71.3009 13.6113 71.0821 13.6401C69.9519 13.7891 68.8848 14.0281 67.742 14.0281C66.9746 14.0281 66.3691 14.6799 65.802 15.1584C64.573 16.1953 63.1678 16.8606 61.8715 17.7984C60.422 18.847 59.06 20.0733 57.7132 21.2482C53.9969 24.49 53.9227 29.4041 51.1932 33.2254C49.16 36.0719 46.2876 37.4054 43.3321 39.1634C41.8249 40.0599 40.2904 40.5824 39.081 41.9553C38.6924 42.3964 38.4134 42.9261 38.052 43.3892C37.776 43.7428 37.3104 44.1008 37.1748 44.5447C36.9058 45.4251 38.412 44.8695 38.7689 44.8231C41.3571 44.4864 44.0207 44.1808 46.5204 43.3976C48.45 42.793 49.7672 41.4104 50.8895 39.7791C52.4849 37.4603 53.8286 34.9653 56.0347 33.1242C58.1382 31.3687 60.1645 30.1213 62.6981 29.1346C64.5689 28.406 66.8043 27.5874 68.0794 25.9547C69.1245 24.6165 69.7884 23.0082 70.8291 21.6784C72.2985 19.8008 74.1217 17.9858 76.0164 16.5332C78.4535 14.6647 81.4337 13.8232 84.0209 12.2062C85.2996 11.407 86.2978 11.1202 87.8502 11.2953C90.7075 11.6175 93.6008 11.6041 96.4705 11.7592C97.4645 11.8129 101.342 11.9888 100.342 13.9016C99.3837 15.7349 97.5714 17.0178 95.7451 17.8575C93.5915 18.8476 91.4237 19.8159 89.1829 20.5903C87.7189 21.0962 86.409 21.9083 84.9234 22.3616C83.5938 22.7672 82.4424 23.3906 81.2206 24.0485C79.9411 24.7375 78.7314 25.4376 77.7455 26.5283C76.525 27.8787 75.9419 29.6727 74.6753 30.9987C73.1282 32.6183 71.4239 34.1309 69.7663 35.6377C69.6471 35.7461 68.7187 36.4663 68.771 36.6667C68.7756 36.6844 73.7413 34.6687 74.1017 34.5328C75.3738 34.0529 76.7069 33.7123 77.8805 33.0061C78.6126 32.5655 79.2269 32.0964 80.0313 31.7746C82.3023 30.8663 84.6742 30.2391 86.9393 29.3117C87.4212 29.1144 87.9077 28.904 88.3563 28.6369C88.727 28.4163 87.572 28.9967 87.1839 29.1852C81.8284 31.7864 76.167 33.786 71.099 36.9535C68.4489 38.6098 65.7998 40.6923 63.5584 42.8747C61.6149 44.767 59.2488 46.1215 57.3421 48.0282C55.9554 49.4149 54.642 50.9227 53.0235 52.0431C52.4839 52.4167 51.9357 52.7613 51.4125 53.165C51.3938 53.1794 51.0523 53.4914 51.2101 53.3336C51.7678 52.7759 52.323 52.3346 52.9982 51.9166C54.4783 51.0004 55.8483 50.1481 57.418 49.3694C59.3028 48.4342 61.2104 47.7459 63.1957 47.0414C64.8922 46.4394 66.5828 45.7489 68.1469 44.8484C69.0394 44.3345 69.8729 43.6202 70.8797 43.3301C72.0499 42.9929 71.0013 45.8541 70.6941 46.4172C70.2679 47.1987 69.9995 47.2781 69.159 47.4631C66.8784 47.9653 64.6092 48.1561 62.5294 49.3694C62.3279 49.4869 60.7868 50.4141 60.9268 50.6008C61.2033 50.9695 63.2161 51.1344 63.6765 51.1912C64.5024 51.2932 65.1931 50.9017 65.9792 50.6936C67.0677 50.4055 68.1977 50.4255 69.3193 50.4743C71.1957 50.5559 73.3844 52.0028 75.2742 51.4358C76.3798 51.1041 77.1528 50.0671 77.9479 49.285C78.8529 48.3948 79.8557 47.4987 80.976 46.898C83.1248 45.7457 85.5884 45.2005 87.9008 44.4772C90.079 43.796 91.829 42.7981 93.7798 41.6601C98.5599 38.8717 103.01 35.4307 107.317 31.9602C108.735 30.8179 109.944 29.4162 111.324 28.2237C113.414 26.4171 115.989 25.1307 118.232 23.5087C120.752 21.6868 122.58 19.2568 124.811 17.1405C126.214 15.8096 127.561 14.7057 128.615 13.0497C128.755 12.8299 129.231 12.3902 129.231 12.1219C129.231 11.9886 128.983 12.2275 128.876 12.3074C128.194 12.8189 127.529 13.3432 126.802 13.7919C125.192 14.7851 124.341 14.5347 122.989 13.3702C121.817 12.3608 120.745 12.7061 119.278 12.822C117.527 12.9602 115.843 13.5208 114.082 13.5726C111.303 13.6544 108.41 14.7104 106.086 16.2043C104.946 16.9372 104.129 18.0855 103.362 19.1817C103.084 19.5779 102.863 20.033 102.754 20.5059C102.626 21.0639 104.003 20.7513 104.213 20.7421C106.148 20.6576 108.072 20.5039 109.983 20.1854C110.469 20.1044 109.504 21.4353 109.477 21.4675C108.488 22.6472 107.056 23.498 105.732 24.2425C104.141 25.1364 102.495 25.9213 100.882 26.7729C99.3447 27.5845 97.9127 28.5777 96.3524 29.3455C93.91 30.5473 91.4508 31.7106 89.1239 33.1326C87.8298 33.9234 86.9405 35.0913 85.8259 36.0932C84.8633 36.9585 83.4724 37.2942 82.2834 37.7211C80.6373 38.312 78.9918 38.9099 77.3069 39.3827C76.5769 39.5875 74.5356 39.7634 74.1186 40.5973C73.9726 40.8894 74.2638 40.938 74.515 40.9431C76.2101 40.9777 78.0279 40.0578 79.4831 39.3152C81.6713 38.1986 83.8688 36.9168 85.8091 35.4016C87.7611 33.8771 89.2042 31.896 90.659 29.919C91.5699 28.6811 92.3232 26.9858 93.6955 26.1825C94.9975 25.4203 96.3932 24.8457 97.7694 24.2341C98.8625 23.7482 99.7999 22.9566 100.89 22.4543C104.398 20.8384 108.257 20.1493 111.754 18.4816C114.166 17.3313 116.772 16.7726 119.312 15.9428C122.699 14.836 126.385 14.1964 129.408 12.3074C129.81 12.0559 130.396 11.6158 130.884 11.8182C131.749 12.1768 132.792 12.3795 133.735 12.3581C135.216 12.3244 136.345 12.2445 137.733 12.9991C138.88 13.6231 139.634 15.2457 139.58 16.5163C139.539 17.4891 138.673 18.2579 138.568 19.148C138.448 20.1663 138.581 21.1403 137.547 21.7711C135.78 22.8499 133.503 23.1002 131.542 22.623C130.279 22.3158 128.523 22.8372 127.679 23.8292C127.016 24.6077 126.493 25.6814 126.456 26.7138C126.425 27.5845 127.194 27.4678 127.864 27.6079C129.198 27.8864 130.593 28.0534 131.508 29.143C132.195 29.9605 132.411 30.997 132.942 31.9096C133.908 33.5689 135.424 34.783 137.311 34.9798C138.653 35.1198 139.952 35.3565 140.28 33.7146C140.442 32.906 139.45 32.5794 138.897 32.2301C136.769 30.8868 134.823 29.4371 133.507 27.2621C132.721 25.964 132.599 24.0606 132.031 22.6399C131.835 22.1488 129.864 19.1505 130.547 18.9877C132.268 18.5769 133.714 20.3576 134.739 21.4506C135.673 22.4471 136.464 23.5721 137.429 24.5546C138.827 25.9778 140.762 26.3778 142.541 27.1187C142.983 27.303 143.589 27.3654 143.974 27.6501C144.79 28.2525 145.694 29.0448 146.286 29.8684C146.883 30.7002 147.211 31.6818 147.913 32.4747C148.604 33.2543 149.124 33.8716 149.558 34.8196C149.88 35.5206 149.921 36.2968 150.098 37.0379C150.435 38.4457 150.325 38.8682 149.482 40.0744C148.417 41.6003 147.009 42.5944 145.408 43.5157C144.346 44.1272 142.849 44.771 142.144 45.8437C141.304 47.1227 140.313 48.3928 139.167 49.4115C138.398 50.0952 137.75 50.8914 136.67 51.0732C135.021 51.3508 131.276 51.0618 131.137 48.7958C131 46.5696 132.23 44.7023 134.165 43.735C136.039 42.7978 138.409 42.5343 140.061 41.2215C140.741 40.681 141.42 40.0985 142.035 39.4839C142.366 39.1525 142.88 38.6506 142.051 38.7501C137.487 39.2978 132.58 40.1719 128.885 43.0855C127.694 44.0248 126.495 45.6515 125.772 46.9908C125.196 48.0593 124.76 49.3512 124.76 50.5839C124.76 51.3036 125.999 51.6979 126.532 51.3093C126.905 51.0374 127.209 50.7492 127.645 50.5671C127.657 50.5621 128.317 50.3989 128.202 50.255C127.964 49.9584 125.419 51.735 125.115 51.8997C123.491 52.7786 122.092 53.8136 120.577 54.8603C119.878 55.3434 119.153 55.7702 118.384 56.134C117.176 56.7052 115.982 56.6667 114.672 56.7919C111.882 57.0586 108.979 57.2868 106.255 57.9727C105.22 58.2331 104.184 58.4831 103.151 58.7487C102.83 58.8312 102.185 59.2794 102.425 58.7993C103.139 57.3728 103.78 55.8708 104.956 54.7507C105.721 54.0218 106.664 53.3933 107.545 52.8107C110.269 51.0101 113.695 50.5866 116.798 49.808C118.355 49.4174 119.892 48.9082 121.386 48.3235C123.362 47.5506 124.843 46.3024 126.38 44.8652C129.134 42.2886 131.33 39.5902 132.79 36.0763C132.818 36.0103 133.431 34.5237 133.322 34.5159C132.511 34.458 130.85 36.0261 130.31 36.5149C129.411 37.3294 128.863 38.4779 128.084 39.3996C127.007 40.6727 125.783 42.0963 124.33 42.959C123.093 43.6938 121.68 44.2089 120.273 44.5026C119.646 44.6335 116.869 45.2946 116.477 44.4604C116.116 43.6901 116.932 41.9156 117.22 41.2889C118.458 38.5948 120.573 36.5563 122.264 34.1701C122.408 33.966 123.602 31.604 123.529 31.6397C123.212 31.794 122.106 32.7342 122.044 32.7868C120.69 33.9431 119.352 35.143 118.156 36.4643C116.491 38.3032 115.672 40.6649 114.2 42.6385C113.609 43.4307 112.935 43.9523 112.075 44.4266C110.395 45.3528 108.863 46.4346 107.351 47.6149C105.813 48.816 104.616 49.978 102.864 50.8539C101.009 51.7814 99.093 52.6395 97.1284 53.3083C96.496 53.5236 96.7261 53 96.8247 52.5492C97.0865 51.3524 97.6096 50.3848 98.4104 49.4537C99.9524 47.661 101.768 45.8653 103.606 44.376C105.672 42.7024 107.926 41.8611 110.286 40.7154C110.699 40.5153 112.339 39.8025 112.42 39.2309C112.447 39.0463 112.075 39.3718 111.906 39.4502C110.784 39.9705 109.657 40.4676 108.566 41.0528C104.403 43.2846 100.587 45.7613 96.8753 48.6524C95.5687 49.67 94.2656 50.7034 92.8267 51.5286C92.0001 52.0027 91.2024 52.5595 90.2794 52.8191C89.7307 52.9735 89.1006 53.1263 88.5841 53.3674C87.4289 53.9064 86.1533 54.2759 85.0668 54.9278C84.9063 55.0241 84.8257 55.0085 85.1005 55.0374C86.4317 55.1776 87.755 55.3848 89.0817 55.5604C89.4197 55.6051 89.9758 55.8286 89.9758 55.476" stroke="white" stroke-width="10" stroke-linecap="round" stroke-linejoin="round"/>
</svg>
