<svg width="225" height="158" viewBox="0 0 225 158" fill="none" xmlns="http://www.w3.org/2000/svg">
<path d="M46.4614 10.435C38.4294 18.055 21.0913 25.9524 17.6836 37.8794C15.3602 46.0112 19.4486 43.1553 26.3503 40.6016C38.717 36.0259 51.463 32.5116 63.7947 27.8794C69.8914 25.5893 73.2377 21.715 78.0169 17.6572C80.6269 15.4412 84.1017 13.1008 87.0169 11.435C88.7602 10.4388 97.9557 1.60359 93.0169 6.43497C87.3311 11.9972 80.8544 16.6109 75.0169 21.9905C69.3662 27.198 64.4911 32.7047 57.9614 36.8794C46.4269 44.2539 31.7356 51.659 22.5725 61.8794C19.7709 65.0043 17.7497 69.3843 14.6836 71.9905C14.3224 72.2975 11.3034 74.3239 13.5725 74.3239C20.1517 74.3239 28.7079 70.5394 34.9614 68.8239C49.8277 64.7455 63.0854 58.0763 75.2392 48.6572C82.5302 43.0066 88.2345 35.5983 95.9058 30.435C103.41 25.3843 111.156 20.6755 118.684 15.6572C143.732 -1.0416 70.5882 51.8861 46.128 69.435C34.5897 77.7131 22.4209 85.3071 11.1836 93.9905C9.76796 95.0844 6.2279 98.3239 8.01693 98.3239C10.4929 98.3239 12.1031 95.5263 14.128 94.1016C30.8548 82.3334 48.2106 71.4948 65.4058 60.435C86.4422 46.9045 109.704 34.192 127.572 16.3239C135.544 8.35229 110.138 30.6248 101.239 37.5461C85.6885 49.641 69.5796 60.9367 53.7947 72.7128C44.9081 79.3425 35.4762 86.1093 28.128 94.5461C27.5498 95.2099 26.2948 97.2746 27.128 96.9905C31.6585 95.4461 38.0758 89.8677 41.6836 87.8794C75.122 69.4511 111.361 56.8496 145.072 38.9905C152.67 34.9656 174.889 21.8564 167.35 25.9905C129.015 47.013 89.464 65.4983 51.6836 87.6572C39.8056 94.6238 29.0546 101.328 17.7947 108.991C14.4849 111.243 8.00782 114.974 5.23915 118.435C3.77841 120.261 9.4076 116.292 11.3503 114.991C22.0614 107.815 32.8837 101.354 44.5169 95.7128C69.2983 83.695 95.4991 73.14 121.572 64.2127C122.229 63.9879 123.796 63.206 123.628 63.8794C122.471 68.5076 116.436 70.1551 112.684 73.1016C97.4629 85.0551 81.8474 96.4767 66.4614 108.213C60.2183 112.975 50.4234 120.516 44.0169 125.991C40.1871 129.263 38.3361 131.36 44.628 128.102C96.5367 101.22 151.255 81.6865 205.795 60.8794C237.867 48.6439 204.905 63.6743 197.572 67.1016C180.644 75.0148 163.534 82.5603 147.072 91.435C143.625 93.2935 140.223 95.2413 136.906 97.3239C135.106 98.4541 130.003 101.546 132.128 101.546C135.765 101.546 145.705 92.8214 147.461 91.6572C151.169 89.1994 154.869 86.7237 158.684 84.435C162.28 82.2769 165.908 80.1515 169.684 78.3239C171.74 77.3284 174.091 74.9555 176.128 75.9905C177.637 76.7574 174.333 78.9169 173.072 80.0461C165.477 86.848 150.252 97.0504 142.795 102.102C126.937 112.842 110.13 122.621 95.0169 134.435C78.2653 147.53 109.445 132.357 110.684 131.824C126.457 125.027 142.571 119.564 159.017 114.657C163.068 113.448 175.003 109.343 171.239 111.268C150.3 121.982 128.343 130.791 106.239 138.768C103.65 139.703 86.4703 147.432 81.7947 146.713C81.3371 146.642 82.5102 146.12 82.9058 145.879C86.5805 143.646 90.3039 141.493 94.0169 139.324C110.053 129.955 126.947 122.094 144.739 116.657C157.318 112.814 141.641 126.874 139.184 129.713C137.893 131.204 118.277 153.94 131.461 147.991C141.766 143.341 154.771 135.903 162.85 127.824C165.38 125.294 157.213 132.243 154.572 134.657C152.345 136.695 141.115 145.683 151.239 140.657C154.189 139.193 158.71 136.433 161.461 134.879C164.485 133.172 171.642 127.196 170.961 130.602C170.711 131.856 161.869 138.901 163.85 139.768C167.18 141.225 172.775 138.02 175.906 137.102C180.232 135.833 173.476 145.947 172.684 147.546C171.698 149.534 170.682 155.29 170.461 151.546C170.157 146.375 167.618 145.851 163.461 145.435" stroke="#0FB901" stroke-width="10" stroke-linecap="round" stroke-linejoin="round"/>
</svg>
