<svg width="45" height="29" viewBox="0 0 45 29" fill="none" xmlns="http://www.w3.org/2000/svg">
<path d="M3.26022 3.45123C5.02525 4.6154 7.05205 5.3285 8.73743 6.58659C10.1845 7.66681 11.6603 8.28379 13.3437 8.94779C15.6053 9.83987 17.7132 11.0736 19.9822 11.9864C21.3054 12.5187 22.6184 12.9437 23.911 13.5541C24.6468 13.9015 23.5431 13.9699 23.1949 14.0766C21.8165 14.4993 20.6067 15.6058 19.3725 16.3411C15.9505 18.3797 12.5224 20.3971 9.09548 22.4279C7.59641 23.3163 6.0773 24.1741 4.51824 24.9536C3.99397 25.2158 3.07912 25.7425 2.56348 25.3988" stroke="#333333" stroke-width="5" stroke-linecap="round" stroke-linejoin="round"/>
<path d="M20.6967 3C22.4618 4.16416 24.4886 4.87726 26.174 6.13536C27.621 7.21558 29.0968 7.83256 30.7802 8.49656C33.0418 9.38863 35.1498 10.6224 37.4187 11.5352C38.7419 12.0675 40.0549 12.4924 41.3476 13.1028C42.0833 13.4503 40.9796 13.5186 40.6315 13.6254C39.253 14.0481 38.0433 15.1545 36.809 15.8898C33.387 17.9285 29.959 19.9459 26.532 21.9767C25.0329 22.865 23.5138 23.7229 21.9548 24.5024C21.4305 24.7645 20.5156 25.2913 20 24.9475" stroke="#333333" stroke-width="5" stroke-linecap="round" stroke-linejoin="round"/>
</svg>
