<svg width="83" height="89" viewBox="0 0 83 89" fill="none" xmlns="http://www.w3.org/2000/svg">
<path d="M6.50209 46.1363C6.50209 41.2611 5.10827 37.6566 5 32.7844C8.20473 32.7844 11.1095 33.1156 14.2462 32.2503C15.9471 31.7811 16.6579 29.0257 18.3519 28.5C24.9798 23 24.5528 22.9527 29.4006 17.9972C31.058 16.3029 32.8882 14.584 34.8081 13.1905L34.8355 13.1706C36.053 12.2868 40.8035 8.83831 42.0848 10.1196C42.5656 10.6004 41.6509 13.9793 41.6509 14.7594C41.6509 21.1626 40.2542 28.8978 42.0848 35C45.3633 45.9281 43.4534 55.7517 43.4534 66.5981C43.4534 68.9844 43.6972 71.5065 43.3866 73.8748C43.1649 75.566 43.3177 79.6136 42.0848 80.7344C41.2458 81.4971 36.7297 77.0818 36.0765 76.7121C34.5244 75.8335 33.1825 74.8119 31.5869 73.9416C30.2777 73.2275 28.7679 72.2562 27.6314 71.2712C24.5896 68.635 21.8831 65.1444 18.3519 63.1266C17.1613 62.4462 16.8225 61.9249 15.3811 61.9249C14.1626 61.9249 13.0138 61.6245 11.7761 61.6245C10.7591 61.6245 8.27095 62.0726 7.4701 61.5577C7.14983 61.3518 7.22587 58.1729 7.16968 57.7858C6.59877 53.8529 6.50209 50.1083 6.50209 46.1363Z" stroke="#333333" stroke-width="10" stroke-linecap="round" stroke-linejoin="round"/>
<path d="M54.2768 20.9694C56.0909 23.2875 57.8169 25.6386 59.3839 28.1127C60.6319 30.0833 62.429 31.6431 63.6898 33.6203C65.852 37.011 67.4951 40.6134 67.4951 44.7024C67.4951 48.7309 66.3963 53.5647 64.4242 57.0863C63.3366 59.0284 62.3631 61.029 61.2531 62.9611C60.7996 63.7506 59.675 66.4062 59.9847 63.9291" stroke="#333333" stroke-width="5" stroke-linecap="round" stroke-linejoin="round"/>
<path d="M57.484 8C59.7504 9.93067 66.2239 15.5859 68.4798 17.5C76.2768 27.5 72.964 25.3189 76.2768 31.0515C78.5758 42.0515 79.0669 35.2897 78.9798 44C78.939 48.0797 78.9798 53 76.2768 60.5C71.9798 67.5 68.1941 69.8395 65.5953 72.8234C63.5378 75.1857 61.1672 76.9415 58.6857 78.6648" stroke="#333333" stroke-width="5" stroke-linecap="round" stroke-linejoin="round"/>
<path d="M79.6884 3.46591C74.8079 8.00754 68.9859 11.4937 64.6342 16.6175C60.3039 21.7161 55.786 26.7002 51.5661 31.8887C48.3589 35.8319 44.9852 39.4068 42.1864 43.6718C40.2794 46.5777 38.5766 49.6233 36.4284 52.3672C33.9103 55.5832 30.7993 58.3634 27.9165 61.2462C25.4829 63.6798 23.3015 66.3954 20.8067 68.7566C19.1712 70.3044 17.3086 71.5819 15.6996 73.1627C13.758 75.0702 11.8495 77.0127 9.92489 78.9374C8.66916 80.1931 7.13878 81.1526 5.85257 82.4089C5.08444 83.1592 2.96595 85.7507 3.9833 83.3769" stroke="#FF8C2B" stroke-width="5" stroke-linecap="round" stroke-linejoin="round"/>
<path d="M3.08206 5.56885C14.1324 20.6511 25.3064 29.6191 36.5 44.5C40.4603 49.7648 47 52.5 55 62.5C64.1625 69.4413 70.352 80.8205 80.5229 86.2142" stroke="#FF8C2B" stroke-width="4" stroke-linecap="round" stroke-linejoin="round"/>
</svg>
