<svg width="320" height="319" viewBox="0 0 320 319" fill="none" xmlns="http://www.w3.org/2000/svg">
<path d="M79.5509 117.319C82.9666 101.948 91.9768 90.1359 106.973 84.001C115.635 80.4573 124.109 76.0304 133.298 74.1291C144.023 71.9101 156.173 72.2455 167.028 73.1693C182.641 74.4981 193.236 84.67 204.459 94.4215C216.137 104.568 227.366 118.838 232.018 133.772C236.771 149.031 243.586 168.143 234.212 183.269C227.718 193.749 218.163 203.081 210.08 212.337C202.956 220.495 195.052 226.689 186.086 232.629C168.142 244.517 136.572 257.34 116.845 241.953C97.7961 227.095 78.844 207.431 73.9294 182.858C69.7009 161.715 81.9608 143.737 94.9073 128.836C106.122 115.929 112.93 102.52 132.064 105.253C157.246 108.851 207.298 120.195 193.079 156.533C188.72 167.671 178.489 181.153 169.359 188.891C160.47 196.424 148.669 198.539 137.549 200.957C128.445 202.936 117.927 191.969 112.595 185.874C99.5803 171.001 112.709 155.021 125.757 145.427C132.038 140.809 134.338 143.107 137.823 149.951C139.705 153.648 141.062 157.61 143.17 161.194C144.754 163.887 150.078 161.13 152.357 160.509" stroke="#FDDB61" stroke-width="15" stroke-linecap="round" stroke-linejoin="round"/>
<path d="M98.0609 59.3211C103.495 56.11 107.858 53.4798 114.103 53.1511C116.229 53.0392 120.447 52.3699 122.467 51.6429C127.38 49.874 116.479 24.4866 114.72 20.3816C114.167 19.0913 110.011 9.16877 109.167 10.6468C106.968 14.4947 103.332 17.7777 100.529 21.2043C96.7996 25.7622 93.7355 32.5175 93.1934 38.4803C93.0068 40.5332 94.275 49.4072 91.8909 48.2151" stroke="#FDDB61" stroke-width="15" stroke-linecap="round" stroke-linejoin="round"/>
<path d="M164.697 49.4491C172.182 49.4491 182.976 47.4016 189.994 51.3001C190.945 51.8286 197.225 54.5075 197.74 53.014C202.704 38.6196 198.191 21.3109 202.334 6.39629C203.589 1.8786 197.106 10.2359 195.272 11.7436C191.504 14.8425 186.884 18.4665 183.824 22.2326C179.44 27.6283 174.854 32.7113 170.593 38.3431C168.418 41.2172 165.16 48.9101 162.229 44.5131" stroke="#FDDB61" stroke-width="15" stroke-linecap="round" stroke-linejoin="round"/>
<path d="M225.163 66.725C229.96 72.6015 234.567 78.7447 238.257 85.3036C239.974 88.3569 243.424 94.5239 247.1 91.1308C250.454 88.0352 253.237 84.3089 256.561 80.9846C261.28 76.2654 266.894 73.2102 271.095 67.959C271.736 67.1575 276.986 63.5281 276.168 62.3375C275.065 60.7338 265.109 63.1338 262.868 62.9545C258.052 62.5692 253.508 61.7891 248.609 61.7891C243.245 61.7891 227.204 60.5551 232.567 60.5551" stroke="#FDDB61" stroke-width="15" stroke-linecap="round" stroke-linejoin="round"/>
<path d="M254.779 116.085C262.553 126.551 272.071 136.783 275.482 149.403C277.469 156.752 280.158 152.669 285.629 149.129C291.648 145.234 296.867 140.327 302.905 136.446C306.483 134.146 320.56 117.076 310.925 119.17C298.642 121.84 277.835 124.528 265.885 118.553" stroke="#FDDB61" stroke-width="15" stroke-linecap="round" stroke-linejoin="round"/>
<path d="M248.609 220.975C257.302 215.8 259.926 212.532 264.582 204.384C267.353 199.536 267.881 199.745 272.055 203.699C275.902 207.344 281.022 210.491 283.846 215.011C286.733 219.629 289.509 224.734 290.496 230.161C291.536 235.882 293.221 238.251 287 238.251C271.832 238.251 258.864 236.687 246.141 227.145" stroke="#FDDB61" stroke-width="15" stroke-linecap="round" stroke-linejoin="round"/>
<path d="M189.377 260.463C197.743 255.629 206.697 253.153 215.291 249.083C218.906 247.37 225.259 252.353 225.259 254.91C225.259 259.249 258.321 306.192 236.5 292.5C222.759 272.5 215.291 279 193.079 266.633" stroke="#FDDB61" stroke-width="15" stroke-linecap="round" stroke-linejoin="round"/>
<path d="M111.635 270.335C126.5 271.464 145.427 265.316 160.309 269.375C167.53 271.344 155.071 284.093 153.111 287.542C148.729 295.254 143.629 304.37 140.291 312.565C138.178 317.751 129.187 301.53 127.128 298.785C124.104 294.753 121.935 290.355 118.627 286.651C114.296 281.8 116.095 270.486 109.167 269.101" stroke="#FDDB61" stroke-width="15" stroke-linecap="round" stroke-linejoin="round"/>
<path d="M59.8069 217.273C65.2706 230.325 75.1595 241.087 80.5106 254.019C83.6371 261.574 84.7587 258.301 75.3004 261.697C68.2323 264.234 59.8485 268.317 52.4029 269.101C47.2817 269.64 39.5846 277.565 35.9496 280.618C30.3564 285.316 36.4406 273.977 37.1151 272.529C40.4601 265.343 43.9015 258.712 48.1525 252.099C51.006 247.66 54.1526 242.841 56.7905 238.045C58.7704 234.445 62.7808 223.807 65.9769 222.209" stroke="#FDDB61" stroke-width="15" stroke-linecap="round" stroke-linejoin="round"/>
<path d="M48.701 150.637C43.6416 160.958 41.297 170.099 41.297 181.487C41.297 187.008 40.7005 192.11 40.063 197.529C39.9971 198.089 29.6929 189.013 27.9972 187.657C21.3679 182.353 13.782 174.965 5.78526 171.889C2.04007 170.449 22.8966 165.59 25.6663 165.171C29.7308 164.555 33.4719 164.211 37.595 164.211" stroke="#FDDB61" stroke-width="15" stroke-linecap="round" stroke-linejoin="round"/>
<path d="M47.4669 113.617C53.3897 104.648 59.2405 95.6396 64.7429 86.469" stroke="#FDDB61" stroke-width="15" stroke-linecap="round" stroke-linejoin="round"/>
<path d="M43.7649 109.915C37.138 101.773 31.6238 95.3059 24.2952 87.9773C19.9939 83.676 16.6077 77.8511 11.9552 74.1291C6.92724 70.1067 20.5168 73.2059 22.17 73.5121C32.5667 75.4374 42.5466 73.4167 52.8828 76.5971C59.5076 78.6355 65.7983 83.1189 72.1469 85.2351" stroke="#FDDB61" stroke-width="15" stroke-linecap="round" stroke-linejoin="round"/>
</svg>
