<svg width="1197" height="30" viewBox="0 0 1197 30" fill="none" xmlns="http://www.w3.org/2000/svg">
<path d="M2.10638 16.7861C99.3863 17.8209 214.01 24.6149 310.851 16.1678C375.046 10.5682 427.615 23.51 494.933 16.786C515.929 19.4661 540.61 12.3034 561.79 12.3034C590.991 12.3034 617.053 13.7008 645.964 16.1678C670.11 18.2281 689.75 17.8489 713.967 16.786C753.947 15.0314 780.959 16.5603 820.572 16.5602C841.4 12.9267 873.922 16.7861 895.136 16.7861C915.424 16.7861 976.806 15.199 997.08 16.7861C1059.14 21.6443 1042.96 23.8579 1106.02 16.7861C1132.23 9.67227 1139.22 16.7861 1168.35 16.7861C1181.74 16.7861 1205.05 17.6921 1229.51 16.1678" stroke="#353535" stroke-width="3" stroke-linecap="round" stroke-linejoin="round"/>
</svg>
