<svg width="163" height="65" viewBox="0 0 163 65" fill="none" xmlns="http://www.w3.org/2000/svg">
<path d="M27.6313 11.2994C24.1858 13.2987 21.8984 14.4075 18.3879 16.2952C15.5806 17.8048 11.5763 20.1685 9.08407 22.2016C6.84384 24.0292 4.59061 25.9741 2.99966 28.4217C2.86164 28.6341 1.79611 30.2536 2.11753 30.1634C6.96044 28.8039 12.0938 25.6575 16.6613 23.5813C23.3879 19.2952 25.1916 18.2532 29.3504 14.5565C30.7952 13.2722 32.3491 12.0648 33.9193 10.9375C34.705 10.3735 36.7666 8.54669 36.4074 9.44469C35.3052 12.2002 32.4785 15.0628 30.6849 17.3386C26.5313 22.6087 21.933 27.4438 16.6613 31.611C12.1632 35.1666 7.76852 38.7024 4.0175 43.0786C3.38688 43.8143 3.06189 44.2034 2.50205 44.9786C2.33676 45.2074 1.88561 45.4354 2.02706 45.6797C2.15616 45.9027 2.52732 45.5365 2.75085 45.4083C3.66188 44.886 4.53931 44.3068 5.41985 43.7345C14.7935 37.6431 23.6079 30.8394 32.7432 24.4182C41.5794 18.2072 50.7711 13.1693 61.0164 9.67088C61.4515 9.52231 65.1127 8.26333 64.658 8.65304C58.9556 13.5408 53.5462 18.7456 47.7845 23.5813C40.6956 29.531 34.4511 36.4513 27.8123 42.8976C23.2051 47.3713 18.2358 51.4242 14.0602 56.3105C13.3654 57.1235 9.36426 60.7347 12.5673 58.7985C29.2242 48.7298 45.0058 35.6667 61.0164 24.4182C66.6722 18.8323 72.2172 13.9412 77.8673 8.29114C79.3255 6.83296 80.7569 5.18744 82.5042 4.06146C84.2401 2.94272 80.5894 8.14407 80.5137 8.26852C75.2751 16.8777 68.7585 24.1978 62.1474 31.7467C55.9094 38.8694 50.5053 46.7911 43.962 53.6189C42.9584 54.6661 41.4694 56.0036 40.8406 57.351C40.7008 57.6506 41.4539 57.1001 41.7454 56.9438C46.5257 54.3805 56.5152 45.9273 61.0164 42.8976C73.4033 34.5603 80.6123 29.726 91.3879 19.2952C94.636 16.1511 98.0331 12.393 101.685 9.67088C107.388 3.80479 111.682 2.11626 106.388 8.65304C104.104 12.7429 99.3879 17.3386 94.0396 23.898C82.5042 34.7952 70.3507 42.7063 59.3879 53.6189C57.5 55.4982 53.0803 59.4931 50.8879 61.2952C49.4525 62.4752 78.228 46.1839 82.5042 41.7952C107.888 24.2825 100.064 30.3357 120.388 14.5565C126.251 10.8321 131.646 6.41975 137.513 2.70434C137.86 2.48412 138.66 1.70932 138.598 2.11626C138.304 4.05749 132.945 10.2285 132.491 10.847C125.463 20.4382 112.888 26.4087 101.685 35.7275C100.781 37.0447 76.8233 56.0558 75.8879 57.351C71.3305 61.2414 103.127 41.1415 103.888 40.2952C114.888 33.668 124.786 26.532 132.446 20.2564C138.278 15.4781 123.178 28.423 117.888 33.7952C110.098 41.7052 101.671 52.8809 93.6099 60.5176C85.7487 67.965 103.008 55.8893 110.888 48.4618C114.891 44.6884 119.712 40.2952 132.491 26.7952C133.613 26.3399 152.086 4.95567 151.4 8.26852C150.927 10.5585 136.026 30.8128 134.934 32.5836C131.652 37.9048 127.746 42.7522 123.851 47.6249C123.019 48.6663 110.766 61.486 111.682 60.5176C114.092 57.9697 126.127 45.5917 128.556 43.056C131.133 40.3657 133.302 38.2488 136.02 35.7275C137.782 34.0926 152.256 23.8005 151.4 26.0468C148.974 32.4157 120.175 53.6125 118.888 60.5176C134.246 49.4447 125.48 56.8307 134.934 48.4618C139.388 44.5195 139.388 44.2974 141.888 41.7952C145.888 37.7917 180.106 11.322 146.388 44.9786C145.273 46.5841 136.584 54.3924 136.02 56.3105C135.858 56.8595 143.398 50.0912 143.888 49.7952C147.452 47.6413 147.926 44.9429 151.4 42.6488C153.456 41.2915 154.467 40.5906 156.286 39.2108C156.331 39.1771 158.129 37.492 157.055 38.8941C154.064 42.7995 150.788 46.4326 148.098 50.5654C146.692 52.7249 142.67 56.3105 150.154 47.6249" stroke="#FF8C2B" stroke-width="3" stroke-linecap="round" stroke-linejoin="round"/>
</svg>
