<svg width="64" height="46" viewBox="0 0 64 46" fill="none" xmlns="http://www.w3.org/2000/svg">


    <path class="svg-test" d="M10.1802 6.27853C15.8121 6.27853 22.204 7.23535 27.5032 3.94164C33.7059 0.0863965 41.2113 3.16268 47.6113 3.16268C50.69 3.16268 53.6426 3.94164 56.6905 3.94164C57.6249 3.94164 60.04 3.55853 60.701 4.89371C61.6119 6.73363 60.7072 12.491 60.9238 14.8471C61.1038 16.8042 62.9621 36.9574 61.3416 37.437C46.0791 41.9543 30.3261 45.1814 14.8846 42.6557C14.8846 42.6557 6.42308 42.6557 4.11538 39.0492C2.94952 34.9731 2.15924 32.9371 2.15924 28.4789C2.15924 25.5865 1.73542 21.7218 2.27064 18.915C2.68929 16.7195 3.40674 10.3726 4.66578 9.39437" stroke="#333333" stroke-width="3" stroke-linecap="round" stroke-linejoin="round">


    </path>


</svg>
