<svg width="249" height="106" viewBox="0 0 249 106" fill="none" xmlns="http://www.w3.org/2000/svg">
<path d="M48.5 5.5L1 13V40.5L3 56L5 68.5V82V104H14L22 102H31L56.5 104H86L107.5 100.5L159 99L180 95.5H202L237 93.5L243 91.5L244.5 85L246.5 74V58V40.5L244.5 13L243 2H237L212.5 4H202H181.5H152L98.5 2L48.5 5.5Z" fill="white" stroke="white"/>
<path d="M1 12C2.20376 24.881 1.30178 37.791 1.77998 50.7182C2.02475 57.3353 3.89436 63.4755 3.9557 70.2005C4.05538 81.1287 3.9557 92.0699 3.9557 103" stroke="#333333" stroke-linecap="round" stroke-linejoin="round"/>
<path d="M1.09875 12.4979C16.6779 12.1664 31.7096 7.05866 47.0774 5.13769C66.5358 2.70538 86.2671 1.97978 105.868 1.86648C123.893 1.76229 141.837 3.40314 159.843 3.50208C169.823 3.55691 179.804 3.50208 189.784 3.50208C191.483 3.50208 243.593 0.0519565 244.5 1.86648" stroke="#333333" stroke-linecap="round" stroke-linejoin="round"/>
<path d="M4 104.147C7.64523 104.232 11.0499 105.145 14.6769 104.51C17.9064 103.945 21.1321 102.883 24.3996 102.557C30.7463 101.922 38.3153 101.917 44.6175 102.693C53.9226 103.838 62.9627 104.147 72.3319 104.147C76.6732 104.147 81.0815 104.364 85.4168 104.101C89.833 103.834 93.9513 102.024 98.3653 101.739C117.824 100.483 137.423 99.973 156.884 99.1945C165.67 98.8431 174.004 96.1066 182.826 95.9688C222.219 95.9688 236.643 94 241.219 94" stroke="#333333" stroke-linecap="round" stroke-linejoin="round"/>
<path d="M245 1C245 20.9993 248 40.5099 248 60.4295C248 66.3757 246.186 72.8767 245.167 78.7069C244.805 80.7773 245.167 90.2771 245.167 83.7339" stroke="#333333" stroke-linecap="round" stroke-linejoin="round"/>
</svg>
