<svg width="226" height="159" viewBox="0 0 226 159" fill="none" xmlns="http://www.w3.org/2000/svg">
<path d="M47 11C38.9681 18.6201 21.63 26.5174 18.2222 38.4445C15.8989 46.5762 19.9872 43.7203 26.8889 41.1667C39.2557 36.591 52.0016 33.0767 64.3333 28.4444C70.4301 26.1543 73.7764 22.28 78.5556 18.2222C81.1655 16.0063 84.6404 13.6658 87.5556 12C89.2988 11.0039 98.4943 2.16862 93.5556 7C87.8698 12.5622 81.393 17.176 75.5556 22.5556C69.9049 27.7631 65.0298 33.2697 58.5 37.4444C46.9655 44.8189 32.2742 52.2241 23.1111 62.4445C20.3095 65.5693 18.2883 69.9494 15.2222 72.5556C14.861 72.8626 11.842 74.8889 14.1111 74.8889C20.6903 74.8889 29.2466 71.1044 35.5 69.3889C50.3663 65.3105 63.6241 58.6414 75.7778 49.2222C83.0688 43.5717 88.7731 36.1634 96.4445 31C103.948 25.9494 111.695 21.2405 119.222 16.2222C144.27 -0.47657 71.1269 52.4512 46.6667 70C35.1283 78.2782 22.9596 85.8722 11.7222 94.5556C10.3066 95.6495 6.76653 98.8889 8.55556 98.8889C11.0315 98.8889 12.6417 96.0914 14.6667 94.6667C31.3934 82.8984 48.7492 72.0598 65.9445 61C86.9808 47.4696 110.243 34.757 128.111 16.8889C136.083 8.91732 110.677 31.1899 101.778 38.1111C86.2272 50.206 70.1182 61.5018 54.3333 73.2778C45.4467 79.9075 36.0148 86.6743 28.6667 95.1111C28.0885 95.775 26.8334 97.8396 27.6667 97.5556C32.1971 96.0111 38.6145 90.4327 42.2222 88.4445C75.6607 70.0162 111.9 57.4147 145.611 39.5556C153.209 35.5307 175.428 22.4215 167.889 26.5556C129.554 47.578 90.0027 66.0634 52.2222 88.2222C40.3442 95.1889 29.5932 101.893 18.3333 109.556C15.0235 111.808 8.54646 115.539 5.77778 119C4.31704 120.826 9.94624 116.857 11.8889 115.556C22.6001 108.38 33.4224 101.919 45.0556 96.2778C69.8369 84.2601 96.0378 73.7051 122.111 64.7778C122.768 64.5529 124.335 63.771 124.167 64.4445C123.01 69.0726 116.974 70.7201 113.222 73.6667C98.0015 85.6201 82.3861 97.0417 67 108.778C60.757 113.54 50.9621 121.081 44.5556 126.556C40.7258 129.828 38.8747 131.925 45.1667 128.667C97.0753 101.785 151.794 82.2515 206.333 61.4445C238.405 49.2089 205.443 64.2394 198.111 67.6667C181.182 75.5798 164.072 83.1253 147.611 92C144.164 93.8585 140.761 95.8063 137.444 97.8889C135.644 99.0191 130.541 102.111 132.667 102.111C136.303 102.111 146.244 93.3864 148 92.2222C151.708 89.7645 155.408 87.2887 159.222 85C162.819 82.8419 166.447 80.7165 170.222 78.8889C172.279 77.8935 174.63 75.5205 176.667 76.5556C178.176 77.3224 174.872 79.4819 173.611 80.6111C166.016 87.413 150.791 97.6154 143.333 102.667C127.476 113.407 110.669 123.186 95.5556 135C78.804 148.095 109.984 132.922 111.222 132.389C126.996 125.592 143.11 120.129 159.556 115.222C163.607 114.013 175.542 109.908 171.778 111.833C150.838 122.547 128.881 131.356 106.778 139.333C104.188 140.268 87.0089 147.997 82.3333 147.278C81.8758 147.207 83.0488 146.685 83.4445 146.444C87.1191 144.211 90.8425 142.058 94.5556 139.889C110.592 130.52 127.485 122.659 145.278 117.222C157.857 113.379 142.179 127.439 139.722 130.278C138.432 131.769 118.816 154.505 132 148.556C142.304 143.906 155.31 136.468 163.389 128.389C165.919 125.859 157.751 132.808 155.111 135.222C152.883 137.26 141.653 146.248 151.778 141.222C154.728 139.758 159.249 136.998 162 135.444C165.024 133.737 172.181 127.761 171.5 131.167C171.249 132.421 162.407 139.466 164.389 140.333C167.718 141.79 173.314 138.585 176.444 137.667C180.77 136.398 174.015 146.512 173.222 148.111C172.237 150.099 171.22 155.855 171 152.111C170.696 146.94 168.157 146.416 164 146" stroke="#FF0000" stroke-width="10" stroke-linecap="round" stroke-linejoin="round"/>
</svg>
